<svg xmlns="http://www.w3.org/2000/svg" width="360" height="200" viewBox="0 0 360 200"><defs>
<filter id="lift1" x="-50%" y="-50%" width="200%" height="250%"><feDropShadow dx="0" dy="4" stdDeviation="5" flood-color="#2b3442" flood-opacity=".22"/></filter>
<filter id="lift2" x="-50%" y="-50%" width="200%" height="250%"><feDropShadow dx="0" dy="12" stdDeviation="16" flood-color="#2b3442" flood-opacity=".26"/></filter>
<filter id="halo" x="-50%" y="-50%" width="200%" height="200%"><feGaussianBlur stdDeviation="8"/></filter>
<linearGradient id="sunrise" x1="0" y1="0" x2="0" y2="1"><stop offset="0" stop-color="#ffd36b"/><stop offset="1" stop-color="#f0a92e"/></linearGradient>
<linearGradient id="deep" x1="0" y1="0" x2="0" y2="1"><stop offset="0" stop-color="#5b78e6"/><stop offset="1" stop-color="#3a4fc0"/></linearGradient>
<linearGradient id="mist" x1="0" y1="0" x2="0" y2="1"><stop offset="0" stop-color="#ffffff" stop-opacity=".85"/><stop offset="1" stop-color="#ffffff" stop-opacity=".4"/></linearGradient>
<linearGradient id="blush" x1="0" y1="0" x2="0" y2="1"><stop offset="0" stop-color="#ffe1d8" stop-opacity=".95"/><stop offset="1" stop-color="#ffffff" stop-opacity=".3"/></linearGradient>
<linearGradient id="fade" x1="0" y1="0" x2="0" y2="1"><stop offset="0" stop-color="#3d8fd8" stop-opacity=".65"/><stop offset="1" stop-color="#3d8fd8" stop-opacity="0"/></linearGradient>
<g id="pointer"><path d="M0 0V52L12 41L21 60L30 56L21 37H37Z" fill="#3d8fd8" stroke="#fff" stroke-width="5" stroke-linejoin="round"/></g>
<g id="ghost"><path d="M0 0V52L12 41L21 60L30 56L21 37H37Z" fill="#2b3442" opacity=".2"/></g>
<g id="funnel"><path d="M-12 -10H12L3 2V12L-3 9V2Z" fill="#fff"/></g>
</defs><rect width="360" height="200" fill="#ffffff"/><circle cx="80" cy="90" r="44" fill="none" stroke="#e1e5eb" stroke-width="13"/><circle cx="80" cy="90" r="44" fill="none" stroke="#f0b429" stroke-width="13" stroke-dasharray="230 308" stroke-linecap="round" transform="rotate(-90 80 90)"/><circle cx="250" cy="90" r="72" fill="#fff" filter="url(#lift1)"/><circle cx="250" cy="90" r="60" fill="none" stroke="#e1e5eb" stroke-width="12"/><circle cx="250" cy="90" r="60" fill="none" stroke="#3d8fd8" stroke-width="12" stroke-dasharray="250 420" stroke-linecap="round" transform="rotate(-90 250 90)"/></svg>