<svg xmlns="http://www.w3.org/2000/svg" width="320" height="200" viewBox="0 0 320 200"><defs>
<filter id="lift1" x="-50%" y="-50%" width="200%" height="250%"><feDropShadow dx="0" dy="4" stdDeviation="5" flood-color="#2b3442" flood-opacity=".22"/></filter>
<filter id="lift2" x="-50%" y="-50%" width="200%" height="250%"><feDropShadow dx="0" dy="12" stdDeviation="16" flood-color="#2b3442" flood-opacity=".26"/></filter>
<filter id="halo" x="-50%" y="-50%" width="200%" height="200%"><feGaussianBlur stdDeviation="8"/></filter>
<linearGradient id="sunrise" x1="0" y1="0" x2="0" y2="1"><stop offset="0" stop-color="#ffd36b"/><stop offset="1" stop-color="#f0a92e"/></linearGradient>
<linearGradient id="deep" x1="0" y1="0" x2="0" y2="1"><stop offset="0" stop-color="#5b78e6"/><stop offset="1" stop-color="#3a4fc0"/></linearGradient>
<linearGradient id="mist" x1="0" y1="0" x2="0" y2="1"><stop offset="0" stop-color="#ffffff" stop-opacity=".85"/><stop offset="1" stop-color="#ffffff" stop-opacity=".4"/></linearGradient>
<linearGradient id="blush" x1="0" y1="0" x2="0" y2="1"><stop offset="0" stop-color="#ffe1d8" stop-opacity=".95"/><stop offset="1" stop-color="#ffffff" stop-opacity=".3"/></linearGradient>
<linearGradient id="fade" x1="0" y1="0" x2="0" y2="1"><stop offset="0" stop-color="#3d8fd8" stop-opacity=".65"/><stop offset="1" stop-color="#3d8fd8" stop-opacity="0"/></linearGradient>
<g id="pointer"><path d="M0 0V52L12 41L21 60L30 56L21 37H37Z" fill="#3d8fd8" stroke="#fff" stroke-width="5" stroke-linejoin="round"/></g>
<g id="ghost"><path d="M0 0V52L12 41L21 60L30 56L21 37H37Z" fill="#2b3442" opacity=".2"/></g>
<g id="funnel"><path d="M-12 -10H12L3 2V12L-3 9V2Z" fill="#fff"/></g>
</defs><rect width="320" height="200" fill="#eceff3"/><g transform="translate(110,60) rotate(-2) translate(-90,-30)" filter="url(#lift1)" opacity=".5"><rect width="180" height="60" rx="13.2" fill="#ffffff"/><rect width="7.2" height="60" rx="3.6" fill="#138f8a"/><circle cx="33" cy="30" r="15" fill="#138f8a" opacity=".85"/><rect x="60" y="18" width="63" height="8.4" rx="4.2" fill="#2b3442"/><rect x="60" y="34.8" width="90" height="6" rx="3" fill="#c5ccd6"/></g><g transform="translate(150,100) rotate(3) translate(-90,-30)" filter="url(#lift1)" opacity=".5"><rect width="180" height="60" rx="13.2" fill="#ffffff"/><rect width="7.2" height="60" rx="3.6" fill="#e2614c"/><circle cx="33" cy="30" r="15" fill="#e2614c" opacity=".85"/><rect x="60" y="18" width="63" height="8.4" rx="4.2" fill="#2b3442"/><rect x="60" y="34.8" width="90" height="6" rx="3" fill="#c5ccd6"/></g><g transform="translate(130,150) rotate(0) translate(-90,-30)" filter="url(#lift1)" opacity="1"><rect width="180" height="60" rx="13.2" fill="#ffffff"/><rect width="7.2" height="60" rx="3.6" fill="#f0b429"/><circle cx="33" cy="30" r="15" fill="#f0b429" opacity=".85"/><rect x="60" y="18" width="63" height="8.4" rx="4.2" fill="#2b3442"/><rect x="60" y="34.8" width="90" height="6" rx="3" fill="#c5ccd6"/></g></svg>