<svg xmlns="http://www.w3.org/2000/svg" width="520" height="260" viewBox="0 0 520 260"><defs>
<filter id="lift1" x="-50%" y="-50%" width="200%" height="250%"><feDropShadow dx="0" dy="4" stdDeviation="5" flood-color="#2b3442" flood-opacity=".22"/></filter>
<filter id="lift2" x="-50%" y="-50%" width="200%" height="250%"><feDropShadow dx="0" dy="12" stdDeviation="16" flood-color="#2b3442" flood-opacity=".26"/></filter>
<filter id="halo" x="-50%" y="-50%" width="200%" height="200%"><feGaussianBlur stdDeviation="8"/></filter>
<linearGradient id="sunrise" x1="0" y1="0" x2="0" y2="1"><stop offset="0" stop-color="#ffd36b"/><stop offset="1" stop-color="#f0a92e"/></linearGradient>
<linearGradient id="deep" x1="0" y1="0" x2="0" y2="1"><stop offset="0" stop-color="#5b78e6"/><stop offset="1" stop-color="#3a4fc0"/></linearGradient>
<linearGradient id="mist" x1="0" y1="0" x2="0" y2="1"><stop offset="0" stop-color="#ffffff" stop-opacity=".85"/><stop offset="1" stop-color="#ffffff" stop-opacity=".4"/></linearGradient>
<linearGradient id="blush" x1="0" y1="0" x2="0" y2="1"><stop offset="0" stop-color="#ffe1d8" stop-opacity=".95"/><stop offset="1" stop-color="#ffffff" stop-opacity=".3"/></linearGradient>
<linearGradient id="fade" x1="0" y1="0" x2="0" y2="1"><stop offset="0" stop-color="#3d8fd8" stop-opacity=".65"/><stop offset="1" stop-color="#3d8fd8" stop-opacity="0"/></linearGradient>
<g id="pointer"><path d="M0 0V52L12 41L21 60L30 56L21 37H37Z" fill="#3d8fd8" stroke="#fff" stroke-width="5" stroke-linejoin="round"/></g>
<g id="ghost"><path d="M0 0V52L12 41L21 60L30 56L21 37H37Z" fill="#2b3442" opacity=".2"/></g>
<g id="funnel"><path d="M-12 -10H12L3 2V12L-3 9V2Z" fill="#fff"/></g>
</defs><rect width="520" height="260" fill="#eceff3"/><use href="#ghost" transform="translate(25,31) scale(1)"/><use href="#pointer" transform="translate(20,20) scale(1)"/><use href="#ghost" transform="translate(95,31) scale(0.6)"/><use href="#pointer" transform="translate(90,20) scale(0.6)"/><rect x="158" y="40" width="4" height="48" rx="2.5" fill="url(#fade)"/><path d="M152 40.8l5.6 6.4l11.2 -13.6" stroke="#3d8fd8" stroke-width="4.8" fill="none" stroke-linecap="round" stroke-linejoin="round"/><circle cx="230" cy="50" r="28" fill="#3d8fd8"/><path d="M216 51l9 10l17 -20" stroke="#fff" stroke-width="7" fill="none" stroke-linecap="round" stroke-linejoin="round"/><rect x="280" y="20" width="60" height="60" rx="16" fill="#8e57b0"/><path d="M294 50h32M310 34v32" stroke="#fff" stroke-width="7" stroke-linecap="round"/><rect x="350" y="20" width="60" height="60" rx="16" fill="#f0b429"/><path d="M366 36l28 28M394 36l-28 28" stroke="#fff" stroke-width="7" stroke-linecap="round"/><rect x="420" y="20" width="60" height="60" rx="16" fill="#36404f"/><use href="#funnel" transform="translate(450,50) scale(1.3)"/><path d="M22 150h50M22 170h50M22 190h50" stroke="#2b3442" stroke-width="8" stroke-linecap="round"/><circle cx="120" cy="162" r="9" fill="none" stroke="#8d96a3" stroke-width="4"/><path d="M126 169l8 8" stroke="#8d96a3" stroke-width="4" stroke-linecap="round"/><path d="M285 200h-50m0 0l18 -16m-18 16l18 16M325 200h50m0 0l-18 -16m18 16l-18 16" stroke="#2b3442" stroke-width="8" fill="none" stroke-linecap="round" stroke-linejoin="round" opacity=".4"/><path d="M150 132h35.8l20.2 20.2v51.5h-56Z" fill="#5f9e62"/><path d="M185.8 132v20.2h20.2Z" fill="#3f7a42"/><rect x="410" y="110" width="100" height="100" rx="24" fill="#e2614c"/><use href="#funnel" transform="translate(460,160) scale(1.6)"/></svg>